<?xml version="1.0" standalone="no"?>
<!DOCTYPE svg PUBLIC "-//W3C//DTD SVG 20010904//EN"
 "http://www.w3.org/TR/2001/REC-SVG-20010904/DTD/svg10.dtd">
<svg version="1.0" xmlns="http://www.w3.org/2000/svg"
 width="1024.000000pt" height="1024.000000pt" viewBox="0 0 1024.000000 1024.000000"
 preserveAspectRatio="xMidYMid meet">
<metadata>
Created by potrace 1.14, written by Peter Selinger 2001-2017
</metadata>
<g transform="translate(0.000000,1024.000000) scale(0.100000,-0.100000)"
fill="#000000" stroke="none">
<path d="M6229 9886 c-2 -2 -40 -6 -84 -10 -79 -6 -209 -22 -255 -31 -13 -3
-41 -7 -61 -10 -156 -23 -515 -126 -636 -181 -17 -7 -34 -14 -38 -14 -3 0 -32
-12 -63 -26 -31 -15 -77 -35 -102 -46 -48 -20 -267 -137 -312 -166 -14 -9 -50
-31 -80 -48 -50 -30 -287 -199 -298 -213 -3 -4 -18 -17 -35 -30 -126 -96 -371
-339 -470 -466 -16 -21 -35 -43 -41 -49 -33 -35 -189 -255 -239 -338 -195
-325 -319 -618 -408 -962 l-33 -130 -127 -32 c-889 -230 -1631 -782 -2111
-1574 -135 -222 -275 -545 -350 -807 -35 -120 -79 -319 -91 -403 -3 -25 -8
-58 -11 -73 -35 -174 -40 -698 -9 -897 2 -14 9 -59 14 -100 25 -176 108 -515
150 -615 5 -11 17 -42 26 -70 10 -27 26 -68 35 -90 10 -22 30 -69 45 -105 41
-97 121 -251 199 -380 204 -339 470 -646 771 -890 44 -36 82 -67 85 -70 3 -3
43 -33 90 -66 282 -201 555 -342 886 -457 132 -46 372 -110 454 -122 25 -3 52
-8 60 -10 36 -10 190 -32 290 -42 163 -15 623 -8 729 12 9 1 41 6 71 9 221 28
519 106 770 203 104 40 418 187 430 202 3 3 25 17 50 30 124 68 321 206 478
336 73 59 298 278 357 346 230 264 385 495 528 786 94 191 213 519 243 668 2
11 10 42 17 69 l13 49 129 34 c127 32 400 119 420 134 6 4 42 19 80 34 158 63
444 220 595 326 30 22 66 47 80 57 13 9 80 62 148 116 208 167 403 372 615
646 69 88 210 320 289 475 141 274 272 666 313 935 9 63 14 92 19 116 4 21 10
64 23 189 4 39 8 174 8 300 0 275 -8 371 -51 630 -43 262 -155 605 -284 870
-369 761 -991 1355 -1765 1684 -11 5 -36 16 -57 25 -20 9 -39 16 -43 16 -4 0
-21 7 -38 14 -150 69 -553 165 -802 192 -27 3 -63 8 -80 10 -35 6 -531 15
-536 10z"/>
</g>
</svg>
